{
  "accessors": [
    {
      "bufferView": 2,
      "componentType": 5126,
      "count": 9212,
      "max": [
        0.8385260105133057,
        0.42765799164772034,
        1.0
      ],
      "min": [
        0.04735289886593819,
        -0.42765799164772034,
        -1.0
      ],
      "type": "VEC3"
    },
    {
      "bufferView": 2,
      "byteOffset": 110544,
      "componentType": 5126,
      "count": 9212,
      "max": [
        0.9999991059303284,
        0.9999987483024597,
        0.999504029750824
      ],
      "min": [
        -0.9999785423278809,
        -0.9999989867210388,
        -0.997704267501831
      ],
      "type": "VEC3"
    },
    {
      "bufferView": 3,
      "componentType": 5126,
      "count": 9212,
      "max": [
        0.9999971389770508,
        0.9999722838401794,
        0.9999985694885254,
        1.0
      ],
      "min": [
        -0.9999309778213501,
        -0.9999711513519287,
        -0.9999979734420776,
        -1.0
      ],
      "type": "VEC4"
    },
    {
      "bufferView": 1,
      "componentType": 5126,
      "count": 9212,
      "max": [
        0.9980000257492065,
        0.9975000023841858
      ],
      "min": [
        0.0020000000949949026,
        0.0020000000949949026
      ],
      "type": "VEC2"
    },
    {
      "bufferView": 0,
      "componentType": 5125,
      "count": 45714,
      "type": "SCALAR"
    },
    {
      "bufferView": 2,
      "byteOffset": 221088,
      "componentType": 5126,
      "count": 9212,
      "max": [
        -0.04735289886593819,
        0.42765799164772034,
        1.0
      ],
      "min": [
        -0.8385260105133057,
        -0.42765799164772034,
        -1.0
      ],
      "type": "VEC3"
    },
    {
      "bufferView": 2,
      "byteOffset": 331632,
      "componentType": 5126,
      "count": 9212,
      "max": [
        0.9999785423278809,
        0.9999987483024597,
        0.999504029750824
      ],
      "min": [
        -0.9999991059303284,
        -0.9999989867210388,
        -0.997704267501831
      ],
      "type": "VEC3"
    },
    {
      "bufferView": 3,
      "byteOffset": 147392,
      "componentType": 5126,
      "count": 9212,
      "max": [
        0.9999334812164307,
        0.9999711513519287,
        0.9999985694885254,
        1.0
      ],
      "min": [
        -0.9999971389770508,
        -0.9999722838401794,
        -0.9999979734420776,
        -1.0
      ],
      "type": "VEC4"
    },
    {
      "bufferView": 1,
      "byteOffset": 73696,
      "componentType": 5126,
      "count": 9212,
      "max": [
        0.9980000257492065,
        0.9975000023841858
      ],
      "min": [
        0.0020000000949949026,
        0.0020000000949949026
      ],
      "type": "VEC2"
    },
    {
      "bufferView": 0,
      "byteOffset": 182856,
      "componentType": 5125,
      "count": 45714,
      "type": "SCALAR"
    }
  ],
  "asset": {
    "extras": {
      "author": "Geug (https://sketchfab.com/Geug)",
      "license": "CC-BY-4.0 (http://creativecommons.org/licenses/by/4.0/)",
      "source": "https://sketchfab.com/3d-models/adidas-sport-shoes-lowpoly-freebie-5c4681af5db54367b51b2bf37e5b2427",
      "title": "Adidas Sport Shoes LowPoly Freebie"
    },
    "generator": "Sketchfab-12.66.0",
    "version": "2.0"
  },
  "bufferViews": [
    {
      "buffer": 0,
      "byteLength": 365712,
      "name": "floatBufferViews",
      "target": 34963
    },
    {
      "buffer": 0,
      "byteLength": 147392,
      "byteOffset": 365712,
      "byteStride": 8,
      "name": "floatBufferViews",
      "target": 34962
    },
    {
      "buffer": 0,
      "byteLength": 442176,
      "byteOffset": 513104,
      "byteStride": 12,
      "name": "floatBufferViews",
      "target": 34962
    },
    {
      "buffer": 0,
      "byteLength": 294784,
      "byteOffset": 955280,
      "byteStride": 16,
      "name": "floatBufferViews",
      "target": 34962
    }
  ],
  "buffers": [
    {
      "byteLength": 1250064,
      "uri": "scene.bin"
    }
  ],
  "images": [
    {
      "uri": "textures/01___Default_baseColor.jpeg"
    },
    {
      "uri": "textures/01___Default_metallicRoughness.png"
    },
    {
      "uri": "textures/01___Default_normal.jpeg"
    },
    {
      "uri": "textures/01___Default1_baseColor.jpeg"
    },
    {
      "uri": "textures/01___Default1_metallicRoughness.png"
    },
    {
      "uri": "textures/01___Default1_normal.jpeg"
    }
  ],
  "materials": [
    {
      "doubleSided": true,
      "name": "01___Default",
      "normalTexture": {
        "index": 2
      },
      "pbrMetallicRoughness": {
        "baseColorTexture": {
          "index": 0
        },
        "metallicRoughnessTexture": {
          "index": 1
        }
      }
    },
    {
      "name": "01___Default1",
      "normalTexture": {
        "index": 5
      },
      "pbrMetallicRoughness": {
        "baseColorTexture": {
          "index": 3
        },
        "metallicRoughnessTexture": {
          "index": 4
        }
      }
    }
  ],
  "meshes": [
    {
      "name": "defaultMaterial",
      "primitives": [
        {
          "attributes": {
            "NORMAL": 1,
            "POSITION": 0,
            "TANGENT": 2,
            "TEXCOORD_0": 3
          },
          "indices": 4,
          "material": 1,
          "mode": 4
        }
      ]
    },
    {
      "name": "defaultMaterial",
      "primitives": [
        {
          "attributes": {
            "NORMAL": 6,
            "POSITION": 5,
            "TANGENT": 7,
            "TEXCOORD_0": 8
          },
          "indices": 9,
          "material": 0,
          "mode": 4
        }
      ]
    }
  ],
  "nodes": [
    {
      "children": [
        1
      ],
      "matrix": [
        0.13719916343688965,
        0.0,
        0.0,
        0.0,
        0.0,
        3.046433404138896e-17,
        -0.13719916343688965,
        0.0,
        0.0,
        0.13719916343688965,
        3.046433404138896e-17,
        0.0,
        0.0,
        0.0,
        0.0,
        1.0
      ],
      "name": "Sketchfab_model"
    },
    {
      "children": [
        2,
        4
      ],
      "matrix": [
        1.0,
        0.0,
        0.0,
        0.0,
        0.0,
        -4.371139006309477e-08,
        0.999999999999999,
        0.0,
        0.0,
        -0.999999999999999,
        -4.371139006309477e-08,
        0.0,
        0.0,
        0.0,
        0.0,
        1.0
      ],
      "name": "Collada visual scene group"
    },
    {
      "children": [
        3
      ],
      "name": "right"
    },
    {
      "mesh": 0,
      "name": "defaultMaterial"
    },
    {
      "children": [
        5
      ],
      "name": "right"
    },
    {
      "mesh": 1,
      "name": "defaultMaterial"
    }
  ],
  "samplers": [
    {
      "magFilter": 9729,
      "minFilter": 9987,
      "wrapS": 10497,
      "wrapT": 10497
    }
  ],
  "scene": 0,
  "scenes": [
    {
      "name": "Sketchfab_Scene",
      "nodes": [
        0
      ]
    }
  ],
  "textures": [
    {
      "sampler": 0,
      "source": 0
    },
    {
      "sampler": 0,
      "source": 1
    },
    {
      "sampler": 0,
      "source": 2
    },
    {
      "sampler": 0,
      "source": 3
    },
    {
      "sampler": 0,
      "source": 4
    },
    {
      "sampler": 0,
      "source": 5
    }
  ]
}
