{
  "accessors": [
    {
      "bufferView": 2,
      "componentType": 5126,
      "count": 3223,
      "max": [
        0.17455635964870453,
        0.07017652690410614,
        0.2123684585094452
      ],
      "min": [
        -0.17648206651210785,
        -0.0655248686671257,
        0.002590219723060727
      ],
      "type": "VEC3"
    },
    {
      "bufferView": 2,
      "byteOffset": 38676,
      "componentType": 5126,
      "count": 3223,
      "max": [
        0.9994461536407471,
        0.9999750852584839,
        0.9999569654464722
      ],
      "min": [
        -0.9977532029151917,
        -0.9999470710754395,
        -1.0
      ],
      "type": "VEC3"
    },
    {
      "bufferView": 1,
      "componentType": 5126,
      "count": 3223,
      "max": [
        0.9986848831176758,
        0.9997539520263672
      ],
      "min": [
        0.0009838833939284086,
        0.0030183717608451843
      ],
      "type": "VEC2"
    },
    {
      "bufferView": 1,
      "byteOffset": 25784,
      "componentType": 5126,
      "count": 3223,
      "max": [
        0.9986848831176758,
        0.9997539520263672
      ],
      "min": [
        0.0009838833939284086,
        0.0030183717608451843
      ],
      "type": "VEC2"
    },
    {
      "bufferView": 0,
      "componentType": 5125,
      "count": 13563,
      "type": "SCALAR"
    },
    {
      "bufferView": 2,
      "byteOffset": 77352,
      "componentType": 5126,
      "count": 3223,
      "max": [
        0.030643880367279053,
        0.09114594012498856,
        0.10905337333679199
      ],
      "min": [
        -0.034367822110652924,
        -0.08935811370611191,
        0.0013301043072715402
      ],
      "type": "VEC3"
    },
    {
      "bufferView": 2,
      "byteOffset": 116028,
      "componentType": 5126,
      "count": 3223,
      "max": [
        0.9998952150344849,
        0.9993319511413574,
        0.9999572038650513
      ],
      "min": [
        -0.9998691082000732,
        -0.9992662668228149,
        -1.0
      ],
      "type": "VEC3"
    },
    {
      "bufferView": 1,
      "byteOffset": 51568,
      "componentType": 5126,
      "count": 3223,
      "max": [
        0.9986848831176758,
        0.9997539520263672
      ],
      "min": [
        0.0009838833939284086,
        0.0030183717608451843
      ],
      "type": "VEC2"
    },
    {
      "bufferView": 1,
      "byteOffset": 77352,
      "componentType": 5126,
      "count": 3223,
      "max": [
        0.9986848831176758,
        0.9997539520263672
      ],
      "min": [
        0.0009838833939284086,
        0.0030183717608451843
      ],
      "type": "VEC2"
    },
    {
      "bufferView": 0,
      "byteOffset": 54252,
      "componentType": 5125,
      "count": 13563,
      "type": "SCALAR"
    }
  ],
  "asset": {
    "extras": {
      "author": "yanix (https://sketchfab.com/yanix)",
      "license": "CC-BY-4.0 (http://creativecommons.org/licenses/by/4.0/)",
      "source": "https://sketchfab.com/3d-models/brown-sneakers-e6c51d2e77d945d1a0efbca530fb4b5b",
      "title": "Brown Sneakers"
    },
    "generator": "Sketchfab-12.65.0",
    "version": "2.0"
  },
  "bufferViews": [
    {
      "buffer": 0,
      "byteLength": 108504,
      "name": "floatBufferViews",
      "target": 34963
    },
    {
      "buffer": 0,
      "byteLength": 103136,
      "byteOffset": 108504,
      "byteStride": 8,
      "name": "floatBufferViews",
      "target": 34962
    },
    {
      "buffer": 0,
      "byteLength": 154704,
      "byteOffset": 211640,
      "byteStride": 12,
      "name": "floatBufferViews",
      "target": 34962
    }
  ],
  "buffers": [
    {
      "byteLength": 366344,
      "uri": "scene.bin"
    }
  ],
  "extensionsRequired": [
    "KHR_materials_pbrSpecularGlossiness"
  ],
  "extensionsUsed": [
    "KHR_materials_pbrSpecularGlossiness"
  ],
  "images": [
    {
      "uri": "textures/rb_r_diffuse.png"
    },
    {
      "uri": "textures/rb_r_specularGlossiness.png"
    }
  ],
  "materials": [
    {
      "doubleSided": true,
      "extensions": {
        "KHR_materials_pbrSpecularGlossiness": {
          "diffuseFactor": [
            1.0,
            1.0,
            1.0,
            1.0
          ],
          "diffuseTexture": {
            "index": 0
          },
          "glossinessFactor": 1.0,
          "specularFactor": [
            0.032202743902439025,
            0.032202743902439025,
            0.032202743902439025
          ],
          "specularGlossinessTexture": {
            "index": 1
          }
        }
      },
      "name": "rb_r"
    }
  ],
  "meshes": [
    {
      "name": "rb1.004_rb_r_0",
      "primitives": [
        {
          "attributes": {
            "NORMAL": 1,
            "POSITION": 0,
            "TEXCOORD_0": 2,
            "TEXCOORD_1": 3
          },
          "indices": 4,
          "material": 0,
          "mode": 4
        }
      ]
    },
    {
      "name": "rb1.000_rb_r_0",
      "primitives": [
        {
          "attributes": {
            "NORMAL": 6,
            "POSITION": 5,
            "TEXCOORD_0": 7,
            "TEXCOORD_1": 8
          },
          "indices": 9,
          "material": 0,
          "mode": 4
        }
      ]
    }
  ],
  "nodes": [
    {
      "children": [
        1
      ],
      "matrix": [
        1.0,
        0.0,
        0.0,
        0.0,
        0.0,
        2.220446049250313e-16,
        -1.0,
        0.0,
        0.0,
        1.0,
        2.220446049250313e-16,
        0.0,
        0.0,
        0.0,
        0.0,
        1.0
      ],
      "name": "Sketchfab_model"
    },
    {
      "children": [
        2
      ],
      "matrix": [
        1.0,
        0.0,
        0.0,
        0.0,
        0.0,
        0.0,
        1.0,
        0.0,
        0.0,
        -1.0,
        0.0,
        0.0,
        0.0,
        0.0,
        0.0,
        1.0
      ],
      "name": "brown_sneakers.fbx"
    },
    {
      "children": [
        3,
        5
      ],
      "name": "RootNode"
    },
    {
      "children": [
        4
      ],
      "matrix": [
        -5.5520822691731535,
        2.8505542822292607e-15,
        51.04999237034506,
        0.0,
        51.049992370342544,
        1.611993164267984e-05,
        5.552082269172889,
        0.0,
        -1.6025433852651464e-05,
        51.35102081298575,
        -1.7428901180609523e-06,
        0.0,
        -6.460195541381836,
        -0.03195997700095177,
        0.06238940358161926,
        1.0
      ],
      "name": "rb1.004"
    },
    {
      "mesh": 0,
      "name": "rb1.004_rb_r_0"
    },
    {
      "children": [
        6
      ],
      "matrix": [
        89.29915351758008,
        -2.7755575615628914e-15,
        -45.007345856467325,
        0.0,
        -45.00734585646728,
        -4.371139006309477e-06,
        -89.29915351757998,
        0.0,
        -1.9673336459913315e-06,
        99.9999999999999,
        -3.903390122239614e-06,
        0.0,
        8.230521202087402,
        -0.03195997700095177,
        0.06238940358161926,
        1.0
      ],
      "name": "rb1.000"
    },
    {
      "mesh": 1,
      "name": "rb1.000_rb_r_0"
    }
  ],
  "samplers": [
    {
      "magFilter": 9729,
      "minFilter": 9987,
      "wrapS": 10497,
      "wrapT": 10497
    }
  ],
  "scene": 0,
  "scenes": [
    {
      "name": "Sketchfab_Scene",
      "nodes": [
        0
      ]
    }
  ],
  "textures": [
    {
      "sampler": 0,
      "source": 0
    },
    {
      "sampler": 0,
      "source": 1
    }
  ]
}
