{
  "accessors": [
    {
      "bufferView": 2,
      "componentType": 5126,
      "count": 6894,
      "max": [
        0.9996740221977234,
        0.3592439889907837,
        0.8943920135498047
      ],
      "min": [
        -0.9996579885482788,
        -0.3592439889907837,
        -0.8943920135498047
      ],
      "type": "VEC3"
    },
    {
      "bufferView": 2,
      "byteOffset": 82728,
      "componentType": 5126,
      "count": 6894,
      "max": [
        0.9999421238899231,
        0.9989709854125977,
        0.9992393851280212
      ],
      "min": [
        -0.9999421238899231,
        -0.9999986290931702,
        -0.9998648762702942
      ],
      "type": "VEC3"
    },
    {
      "bufferView": 1,
      "componentType": 5126,
      "count": 6894,
      "max": [
        0.96738201379776,
        0.9668539762496948
      ],
      "min": [
        0.030432000756263733,
        0.026861000806093216
      ],
      "type": "VEC2"
    },
    {
      "bufferView": 0,
      "componentType": 5125,
      "count": 34788,
      "type": "SCALAR"
    },
    {
      "bufferView": 2,
      "byteOffset": 165456,
      "componentType": 5126,
      "count": 3454,
      "max": [
        1.0,
        0.23568199574947357,
        0.4289189875125885
      ],
      "min": [
        -1.0,
        -0.13781000673770905,
        -0.5421670079231262
      ],
      "type": "VEC3"
    },
    {
      "bufferView": 2,
      "byteOffset": 206904,
      "componentType": 5126,
      "count": 3454,
      "max": [
        0.9998792409896851,
        0.9997417330741882,
        0.9994339942932129
      ],
      "min": [
        -0.9998793601989746,
        -0.9996611475944519,
        -0.9984167814254761
      ],
      "type": "VEC3"
    },
    {
      "bufferView": 3,
      "componentType": 5126,
      "count": 3454,
      "max": [
        0.9999754428863525,
        0.9995611310005188,
        0.9989932179450989,
        1.0
      ],
      "min": [
        -0.9999751448631287,
        -0.9998258948326111,
        -0.999989926815033,
        -1.0
      ],
      "type": "VEC4"
    },
    {
      "bufferView": 1,
      "byteOffset": 55152,
      "componentType": 5126,
      "count": 3454,
      "max": [
        0.9889640212059021,
        0.9522089958190918
      ],
      "min": [
        0.03734710067510605,
        0.03057589940726757
      ],
      "type": "VEC2"
    },
    {
      "bufferView": 0,
      "byteOffset": 139152,
      "componentType": 5125,
      "count": 17124,
      "type": "SCALAR"
    }
  ],
  "asset": {
    "extras": {
      "author": "wraystalker (https://sketchfab.com/wraystalker)",
      "license": "CC-BY-4.0 (http://creativecommons.org/licenses/by/4.0/)",
      "source": "https://sketchfab.com/3d-models/chuck-taylor-blue-7fee170b332a459e8b476358fa63b2fd",
      "title": "Chuck Taylor Blue"
    },
    "generator": "Sketchfab-12.65.0",
    "version": "2.0"
  },
  "bufferViews": [
    {
      "buffer": 0,
      "byteLength": 207648,
      "name": "floatBufferViews",
      "target": 34963
    },
    {
      "buffer": 0,
      "byteLength": 82784,
      "byteOffset": 207648,
      "byteStride": 8,
      "name": "floatBufferViews",
      "target": 34962
    },
    {
      "buffer": 0,
      "byteLength": 248352,
      "byteOffset": 290432,
      "byteStride": 12,
      "name": "floatBufferViews",
      "target": 34962
    },
    {
      "buffer": 0,
      "byteLength": 55264,
      "byteOffset": 538784,
      "byteStride": 16,
      "name": "floatBufferViews",
      "target": 34962
    }
  ],
  "buffers": [
    {
      "byteLength": 594048,
      "uri": "scene.bin"
    }
  ],
  "images": [
    {
      "uri": "textures/1001_baseColor.png"
    },
    {
      "uri": "textures/1001_metallicRoughness.png"
    },
    {
      "uri": "textures/1002_baseColor.jpeg"
    },
    {
      "uri": "textures/1002_metallicRoughness.png"
    },
    {
      "uri": "textures/1002_normal.png"
    }
  ],
  "materials": [
    {
      "alphaMode": "BLEND",
      "doubleSided": true,
      "name": "1001",
      "occlusionTexture": {
        "index": 1,
        "strength": 0.3858612804878049
      },
      "pbrMetallicRoughness": {
        "baseColorTexture": {
          "index": 0
        },
        "metallicRoughnessTexture": {
          "index": 1
        }
      }
    },
    {
      "doubleSided": true,
      "name": "1002",
      "normalTexture": {
        "index": 4
      },
      "occlusionTexture": {
        "index": 3
      },
      "pbrMetallicRoughness": {
        "baseColorTexture": {
          "index": 2
        },
        "metallicRoughnessTexture": {
          "index": 3
        }
      }
    }
  ],
  "meshes": [
    {
      "name": "defaultMaterial",
      "primitives": [
        {
          "attributes": {
            "NORMAL": 1,
            "POSITION": 0,
            "TEXCOORD_0": 2
          },
          "indices": 3,
          "material": 0,
          "mode": 4
        }
      ]
    },
    {
      "name": "defaultMaterial",
      "primitives": [
        {
          "attributes": {
            "NORMAL": 5,
            "POSITION": 4,
            "TANGENT": 6,
            "TEXCOORD_0": 7
          },
          "indices": 8,
          "material": 1,
          "mode": 4
        }
      ]
    }
  ],
  "nodes": [
    {
      "children": [
        1
      ],
      "matrix": [
        1.0,
        0.0,
        0.0,
        0.0,
        0.0,
        2.220446049250313e-16,
        -1.0,
        0.0,
        0.0,
        1.0,
        2.220446049250313e-16,
        0.0,
        0.0,
        0.0,
        0.0,
        1.0
      ],
      "name": "Sketchfab_model"
    },
    {
      "children": [
        2
      ],
      "matrix": [
        1.0,
        0.0,
        0.0,
        0.0,
        0.0,
        -4.371139006309477e-08,
        0.999999999999999,
        0.0,
        0.0,
        -0.999999999999999,
        -4.371139006309477e-08,
        0.0,
        0.0,
        0.0,
        0.0,
        1.0
      ],
      "name": "Collada visual scene group"
    },
    {
      "children": [
        3,
        4
      ],
      "name": "Chuck_Taylor_Shoes"
    },
    {
      "mesh": 0,
      "name": "defaultMaterial"
    },
    {
      "mesh": 1,
      "name": "defaultMaterial"
    }
  ],
  "samplers": [
    {
      "magFilter": 9729,
      "minFilter": 9987,
      "wrapS": 10497,
      "wrapT": 10497
    }
  ],
  "scene": 0,
  "scenes": [
    {
      "name": "Sketchfab_Scene",
      "nodes": [
        0
      ]
    }
  ],
  "textures": [
    {
      "sampler": 0,
      "source": 0
    },
    {
      "sampler": 0,
      "source": 1
    },
    {
      "sampler": 0,
      "source": 2
    },
    {
      "sampler": 0,
      "source": 3
    },
    {
      "sampler": 0,
      "source": 4
    }
  ]
}
